{"title":"Knight.And.Day.2010.R5.LiNE.XviD-SDTeam","uid":5837295,"size":450336328,"categoryP":"video","categoryS":"movies","magnet":"?xt=urn:btih:87099c3ef2d1c1899bba23c40586c199846a9326&amp;dn=Knight.And.Day.2010.R5.LiNE.XviD-SDTeam&amp;tr=udp%3A%2F%2Ftracker.openbittorrent.com%3A80&amp;tr=udp%3A%2F%2Fopen.demonii.com%3A1337&amp;tr=udp%3A%2F%2Ftracker.coppersurfer.tk%3A6969&amp;tr=udp%3A%2F%2Fexodus.desync.com%3A6969","seeders":0,"leechers":0,"uploader":"bg2k9","files":-1,"time":1284770826,"description":"GREETZ: UnDeaD - BadGirl2k9 - virusofsaten - foxyb - WICCYWOLF - lizzymwah1\n\nVISIT http://www.seedboxworld.biz/ for all ur seedbox needs!\n\nRELEASE NAME: Knight.And.Day.2010.R5.LiNE.XviD-SDTeam\nRELEASED BY: UnDeaD &amp; BadGirl2k9\nSIZE: 429 MB\n\nLANGUAGE: English\nIMDb: http://www.imdb.com/title/tt1013743/\n\nPLOT: June Havens finds her everyday life tangled \nwith that of a secret agent who has realized he isn't \nsupposed to survive his latest mission. As their campaign \nto stay alive stretches across the globe, they soon learn \nthat all they can count on is each other. \n\nCOVER IMAGE: http://bayimg.com/oApOOAAcb\nSCREENS: &lt;a href=&quot;\nhttp://i658.photobucket.com/albums/uu309/BadGirl2k9/screens/vlcsnap-2010-09-17-23h41m13s227.png&quot; rel=&quot;nofollow&quot; target=&quot;_NEW&quot;&gt;\nhttp://i658.photobucket.com/albums/uu309/BadGirl2k9/screens/vlcsnap-2010-09-17-23h41m13s227.png&lt;/a&gt; &lt;a href=&quot;\nhttp://i658.photobucket.com/albums/uu309/BadGirl2k9/screens/vlcsnap-2010-09-17-23h41m18s46.png&quot; rel=&quot;nofollow&quot; target=&quot;_NEW&quot;&gt;\nhttp://i658.photobucket.com/albums/uu309/BadGirl2k9/screens/vlcsnap-2010-09-17-23h41m18s46.png&lt;/a&gt; &lt;a href=&quot;\nhttp://i658.photobucket.com/albums/uu309/BadGirl2k9/screens/vlcsnap-2010-09-17-23h41m26s110.png&quot; rel=&quot;nofollow&quot; target=&quot;_NEW&quot;&gt;\nhttp://i658.photobucket.com/albums/uu309/BadGirl2k9/screens/vlcsnap-2010-09-17-23h41m26s110.png&lt;/a&gt;\n\nGeneral\nFormat                           : AVI\nFormat/Info                      : Audio Video Interleave\nFile size                        : 429 MiB\nDuration                         : 1h 45mn\nOverall bit rate                 : 572 Kbps\nWriting application              : MEncoder SVN-r22963\nWriting library                  : MPlayer\n\nVideo\nID                               : 0\nFormat                           : MPEG-4 Visual\nFormat profile                   : Simple@L3\nFormat settings, BVOP            : No\nFormat settings, QPel            : No\nFormat settings, GMC             : No warppoints\nFormat settings, Matrix          : Default (H.263)\nCodec ID                         : XVID\nCodec ID/Hint                    : XviD\nDuration                         : 1h 45mn\nBit rate                         : 496 Kbps\nWidth                            : 512 pixels\nHeight                           : 224 pixels\nDisplay aspect ratio             : 2.25:1\nFrame rate                       : 20.000 fps\nResolution                       : 8 bits\nColorimetry                      : 4:2:0\nScan type                        : Progressive\nBits/(Pixel*Frame)               : 0.216\nStream size                      : 373 MiB (87%)\nWriting library                  : XviD 1.1.2 (UTC 2006-11-01)\n\nAudio\nID                               : 1\nFormat                           : MPEG Audio\nFormat version                   : Version 1\nFormat profile                   : Layer 3\nCodec ID                         : 55\nCodec ID/Hint                    : MP3\nDuration                         : 1h 45mn\nBit rate mode                    : Constant\nBit rate                         : 64.0 Kbps\nChannel(s)                       : 2 channels\nSampling rate                    : 44.1 KHz\nStream size                      : 48.1 MiB (11%)\nAlignment                        : Aligned on interleaves\nInterleave, duration             : 26 ms (0.52 video frame)\nInterleave, preload duration     : 522 ms\n\n\nGROUP NOTE: Big thanks to seedboxworld.biz for the seedbox!\n\n","torrent":{"xt":"urn:btih:87099c3ef2d1c1899bba23c40586c199846a9326","amp;dn":"Knight.And.Day.2010.R5.LiNE.XviD-SDTeam","amp;tr":["udp%3A%2F%2Ftracker.openbittorrent.com%3A80","udp%3A%2F%2Fopen.demonii.com%3A1337","udp%3A%2F%2Ftracker.coppersurfer.tk%3A6969","udp%3A%2F%2Fexodus.desync.com%3A6969"],"infoHash":"87099c3ef2d1c1899bba23c40586c199846a9326","infoHashBuffer":{"type":"Buffer","data":[135,9,156,62,242,209,193,137,155,186,35,196,5,134,193,153,132,106,147,38]},"announce":[],"urlList":[]}}